<?xml version="1.0" encoding="UTF-8" standalone="no"?>
<!-- Created with Inkscape (http://www.inkscape.org/) -->

<svg
   xmlns:dc="http://purl.org/dc/elements/1.1/"
   xmlns:cc="http://creativecommons.org/ns#"
   xmlns:rdf="http://www.w3.org/1999/02/22-rdf-syntax-ns#"
   xmlns:svg="http://www.w3.org/2000/svg"
   xmlns="http://www.w3.org/2000/svg"
   xmlns:sodipodi="http://sodipodi.sourceforge.net/DTD/sodipodi-0.dtd"
   xmlns:inkscape="http://www.inkscape.org/namespaces/inkscape"
   width="235"
   height="222"
   id="svg2"
   version="1.1"
   inkscape:version="0.48.4 r9939"
   sodipodi:docname="godot_engine_logo_plain4.svg">
  <defs
     id="defs4" />
  <sodipodi:namedview
     id="base"
     pagecolor="#ffffff"
     bordercolor="#666666"
     borderopacity="1.0"
     inkscape:pageopacity="0.0"
     inkscape:pageshadow="2"
     inkscape:zoom="0.98994949"
     inkscape:cx="594.41816"
     inkscape:cy="761.05268"
     inkscape:document-units="px"
     inkscape:current-layer="layer1"
     showgrid="false"
     inkscape:window-width="1920"
     inkscape:window-height="1025"
     inkscape:window-x="-2"
     inkscape:window-y="-3"
     inkscape:window-maximized="1" />
  <metadata
     id="metadata7">
    <rdf:RDF>
      <cc:Work
         rdf:about="">
        <dc:format>image/svg+xml</dc:format>
        <dc:type
           rdf:resource="http://purl.org/dc/dcmitype/StillImage" />
        <dc:title></dc:title>
      </cc:Work>
    </rdf:RDF>
  </metadata>
  <g
     inkscape:label="Layer 1"
     inkscape:groupmode="layer"
     id="layer1">
    <path
       style="fill:#478cbf;fill-opacity:1"
       d="m 92.969731,-0.06200834 c -2.62332,0.0434 -19.1936,5.30027004 -25,8.00000004 l -6.40625,2.9687503 0.65625,8.71875 c 0.36371,4.80624 0.9326,10.61182 1.25,12.90625 0.54684,3.95305 0.39489,4.27866 -2.78125,5.90625 -1.84349,0.94468 -6.97011,4.49286 -11.40625,7.90625 l -8.0625,6.21875 -9.875,-5.84375 c -5.43269,-3.21498 -10.25592,-5.84375 -10.6875,-5.84375 -1.14615,0 -11.3159303,12.40351 -16.5937463,20.25 -5.26302,7.82448 -5.50321,6.56793 3.8125,19.5625 l 5.9687463,8.3125 0,28.312498 0,28.34375 2.75,0.6875 c 6.33546,1.55768 7.25,2.93727 7.25,10.96875 l 0,7.375 7.5,2.53125 7.5,2.5 0,-7.78125 c 0,-5.47605 0.42377,-8.15337 1.40625,-8.96875 1.07888,-0.89539 4.70029,-0.5575 15.75,1.5 7.89194,1.46952 14.63643,2.94111 15,3.28125 0.36357,0.34015 0.91713,4.39314 1.21875,9 0.30163,4.60686 0.68395,8.48173 0.84375,8.625 0.15981,0.14326 4.78125,0.93221 10.28125,1.75 5.5,0.8178 10.45,1.39285 11,1.28125 0.55,-0.11159 1.225,-4.21867 1.5,-9.125 l 0.5,-8.90625 21.999999,0 22,0 0.5,9 c 0.27838,5.01083 0.94324,9.006 1.5,9 0.55,-0.006 5.82585,-0.64557 11.71875,-1.40625 l 10.71875,-1.375 0.28125,-9.0625 0.28125,-9.09375 14.8125,-2.84375 c 11.54077,-2.21351 15.14499,-2.57333 16.25,-1.65625 1.00478,0.83389 1.4375,3.47438 1.4375,9 l 0,7.78125 7.46875,-2.5 7.4375,-2.5 0.3125,-7.6875 0.28125,-7.65625 3.75,-1.84375 3.75,-1.8125 0,-28.78125 0,-28.781248 2.84375,-3.59375 c 1.56492,-1.96919 4.75944,-6.51091 7.09375,-10.09375 l 4.25,-6.5 -5.0625,-7.3125 c -2.78582,-4.01109 -6.27113,-8.63125 -7.71875,-10.28125 -1.44762,-1.65 -3.88294,-4.5128 -5.40625,-6.34375 l -2.75,-3.3125 -5.375,2.71875 c -2.95497,1.49368 -7.77187,4.23282 -10.6875,6.09375 -4.72022,3.01275 -5.47227,3.21523 -6.8125,1.875 -2.33304,-2.33304 -12.44156,-9.90476 -16.625,-12.4375 l -3.78125,-2.28125 0.6875,-11.15625 c 0.36882,-6.13845 0.6995,-12.02566 0.75,-13.09375 0.11178,-2.36601 -10.62321,-7.2876803 -22.90625,-10.5000003 -9.41078,-2.46116004 -8.14313,-3.3709 -15.0625,10.7500003 l -4.75,9.6875 -12.3125,-0.21875 -12.3125,-0.1875 -5.624999,-10.8125 C 96.188311,5.2196717 93.502851,0.19878166 93.313481,4.9165714e-4 93.269981,-0.04500834 93.144621,-0.06490834 92.969731,-0.06200834 z M 3.7509847,149.46924 c -1.32399,0.69182 -0.90188,12.9219 0.625,18.21875 2.41422,8.37509 6.6083463,15.02371 13.6874963,21.78125 7.69319,7.34369 13.49305,11.38716 23.59375,16.375 14.4141,7.11785 31.93954,12.10644 51.1875,14.59375 13.162969,1.70098 44.073409,1.12924 55.999999,-1.03125 46.69341,-8.45846 76.48394,-28.52878 82.03125,-55.25 1.03421,-4.98181 0.88103,-12.71272 -0.28125,-13.875 -0.22771,-0.22771 -2.75021,0.28056 -5.59375,1.125 l -5.15625,1.53125 0,7.40625 c 0,5.3847 -0.41746,7.82371 -1.5625,8.96875 -0.86428,0.86429 -1.87678,1.5535 -2.25,1.5625 -0.37321,0.009 -5.54826,1.56887 -11.46875,3.4375 -13.37022,4.21992 -13.71875,3.99818 -13.71875,-7.40625 l 0,-7.78125 -4.25,0.8125 c -2.3375,0.45711 -6.8375,1.35354 -10,1.96875 l -5.75,1.09375 0,8.3125 c 0,5.44856 -0.43009,8.66055 -1.25,9.3125 -1.58105,1.25717 -31.29251,5.3569 -33.28125,4.59375 -1.15966,-0.44501 -1.46875,-2.60215 -1.46875,-9.96875 l 0,-9.375 -16.5,0 -16.5,0 0,9.375 c 0,7.13027 -0.34313,9.52954 -1.40625,9.9375 -1.922209,0.73762 -31.791569,-3.37802 -33.343749,-4.59375 -0.82165,-0.64356 -1.25,-3.83554 -1.25,-9.3125 l 0,-8.3125 -3.75,-0.65625 c -2.0625,-0.36217 -6.55162,-1.24618 -9.96875,-1.9375 l -6.21875,-1.25 -0.28125,8.625 c -0.27844,8.36176 -0.35618,8.62367 -2.78125,8.90625 -3.04133,0.35438 -24.1554,-6.42112 -25.21875,-8.09375 -0.41788,-0.65731 -0.77325,-4.43843 -0.78125,-8.40625 l 0,-7.21875 -6.25,-1.875 c -3.4374963,-1.03646 -6.5223563,-1.76168 -6.8437463,-1.59375 z"
       id="path3031"
       inkscape:export-xdpi="50"
       inkscape:export-ydpi="50"
       inkscape:connector-curvature="0" />
    <path
       style="fill:#ffffff;fill-opacity:1"
       d="m 64.469731,92.937992 c 14.37374,0.053 26.50956,13.696028 22.03125,28.999998 -1.99298,6.81071 -6.30041,12.07462 -12.125,14.8125 -3.01791,1.41859 -6.26745,2.091 -9.78125,2 -7.27943,-0.18844 -8.69371,-0.59412 -13.25,-3.71875 -14.699,-10.08035 -13.01809,-32.31597 3,-39.812498 3.37999,-1.58185 6.80798,-2.29348 10.125,-2.28125 z m 107.156249,-0.0312 c 12.14622,-0.4554 24.21875,8.804598 24.21875,22.968748 0,2.78533 -0.61881,6.53391 -1.375,8.34375 -2.03929,4.8807 -7.57912,10.7161 -12.125,12.78125 -2.32184,1.05479 -6.31431,1.8125 -9.5,1.8125 -20.26484,0 -30.63141,-24.11549 -16.6875,-38.8125 4.42851,-4.667688 9.94774,-6.886748 15.46875,-7.093748 z m -53.59375,13.562498 c 2.10456,-0.0866 4.26558,0.50036 5.75,1.84375 1.87617,1.69791 2.0625,3.03173 2.0625,15.5625 0,11.99268 -0.24174,13.89396 -1.84375,15.34375 -2.55696,2.31402 -8.28841,2.12212 -10.96875,-0.375 -2.03209,-1.89318 -2.1875,-2.9747 -2.1875,-14.90625 0,-11.06536 0.26374,-13.16643 1.875,-15.15625 1.17645,-1.45285 3.20794,-2.22592 5.3125,-2.3125 z"
       id="path3032"
       inkscape:export-xdpi="50"
       inkscape:export-ydpi="50"
       inkscape:connector-curvature="0" />
    <path
       style="fill:#414042;fill-opacity:1"
       d="m 67.125981,102.06299 c -7.05793,-0.11186 -14.25016,4.7451 -15.875,13.40625 -0.93771,4.99844 2.94977,12.25267 8.09375,15.125 4.96523,2.77252 8.67708,2.85803 14,0.28125 7.86233,-3.80609 10.67019,-13.35408 6.25,-21.21875 -2.87092,-5.10811 -7.63964,-7.51721 -12.46875,-7.59375 z m 102.374999,0.0312 c -2.7861,0.1402 -5.47619,0.97806 -7.53125,2.46875 -3.98328,2.8894 -7.49351,10.58891 -6.71875,14.71875 0.87834,4.68194 4.4225,9.55 8.5625,11.75 4.4886,2.38524 8.38536,2.33483 13.53125,-0.15625 10.9969,-5.32351 11.18496,-21.54703 0.3125,-27.09375 -2.47517,-1.26274 -5.37015,-1.8277 -8.15625,-1.6875 z"
       id="path3030"
       inkscape:export-xdpi="50"
       inkscape:export-ydpi="50"
       inkscape:connector-curvature="0" />
  </g>
</svg>
